<svg viewBox="0 0 512 512" xmlns="http://www.w3.org/2000/svg" width="512" height="512"><path fill="#013813" d="M0 0h512v512H0z"/><path d="M248 0h16v512h-16zM148 0h16v512h-16zM48 0h16v512H48zm300 0h16v512h-16zm100 0h16v512h-16z" fill="#275636"/><path d="M512 248v16H0v-16zm0-100v16H0v-16zm0-100v16H0V48zm0 300v16H0v-16zm0 100v16H0v-16z" fill="#275636"/><path d="M39.2.13c13.51 103.3 24.8 256 45.18 339.4 20.37 83.36 30.89 110.5 54.71 110.5 23.83 0 57.4-57.38 92.22-87.12 34.83-29.74 48.21-42 119.1-68.97s132.3-35.5 150.6-37.74h-481c-.01-73.81-.9-226.9-.39-256C39.94.16 39.21.15 39.21.15z" fill="#f9df08"/></svg>