<svg width="512" height="512" viewBox="0 0 512 512" xmlns="http://www.w3.org/2000/svg"><path fill="#013813" d="M0 0h512v512H0z"/><path d="M248 0h16v512h-16zM148 0h16v512h-16zM48 0h16v512H48zM348 0h16v512h-16zM448 0h16v512h-16z" fill="#275636"/><path d="M512 248v16H0v-16zM512 148v16H0v-16zM512 48v16H0V48zM512 348v16H0v-16zM512 448v16H0v-16z" fill="#275636"/><path d="M91.29 39.15c11.7 87.21 21.52 217.2 39.16 287.62 17.63 70.38 26.74 93.3 47.36 93.3 20.63 0 49.69-48.45 79.83-73.56 30.15-25.11 41.73-35.46 103.09-58.24s114.52-29.97 130.36-31.86H74.73C74.7 194.09 74.39 0 74.39 0h12.58c2.31 22.8 1.47 14.06 4.31 39.15z" fill="#f9df08"/></svg>