<svg height="43.2303" viewBox="-0.2391 -0.228 280.213 32.4227" width="373.6173" xmlns="http://www.w3.org/2000/svg" xmlns:xlink="http://www.w3.org/1999/xlink"><defs><path d="M6.157 20.8976c.0238.012.1314.1315.1434.1315h.263c.0358 0 .1315-.0119.1315-.1195 0-.0478-.024-.0717-.0478-.1076-.4304-.4304-1.076-1.0879-1.8172-2.403-1.2912-2.2954-1.7694-5.2483-1.7694-8.1176 0-5.308 1.5064-8.4284 3.5985-10.5444.0359-.0359.0359-.0717.0359-.0957 0-.1195-.0837-.1195-.2271-.1195-.1555 0-.1794 0-.287.0956-1.1357.9804-2.415 2.6421-3.2398 5.1647-.5141 1.578-.789 3.5028-.789 5.4874 0 2.8334.514 6.0373 2.391 8.8109.3228.4663.765.9565.765.9684.1197.1435.287.3348.3827.4184l.4662.4304z" id="u"/><path d="M4.9733 10.2695c0-3.4311-.801-7.0775-3.1561-9.7674-.1674-.1913-.6097-.6575-.8967-.9086C.837-.4782.813-.4782.6575-.4782c-.1195 0-.2271 0-.2271.1195 0 .0479.0478.0957.0717.1196.4065.4184 1.052 1.076 1.7933 2.391 1.2912 2.2954 1.7694 5.2484 1.7694 8.1176 0 5.1885-1.4347 8.3567-3.5866 10.5444-.0239.024-.0478.0598-.0478.0957 0 .1195.1076.1195.2271.1195.1555 0 .1794 0 .287-.0956 1.1357-.9803 2.4149-2.6421 3.2398-5.1646.526-1.6379.789-3.5746.789-5.4994z" id="v"/><path d="M8.3686 28.0827c0-.0478-.0239-.0717-.0478-.1076-.4423-.4423-1.2433-1.2433-2.0443-2.5345-1.9248-3.0844-2.7976-6.9699-2.7976-11.5726 0-3.2159.4304-7.3644 2.403-10.927C6.8264 1.2433 7.8067.263 8.3328-.263c.0358-.0359.0358-.0598.0358-.0957 0-.1195-.0837-.1195-.251-.1195s-.1913 0-.3706.1793C3.742 3.3474 2.4867 8.823 2.4867 13.856c0 4.6984 1.076 9.4327 4.1125 13.0073.2392.2749.6935.7651 1.1836 1.1955.1435.1434.1674.1434.3348.1434s.251 0 .251-.1195z" id="r"/><path d="M6.3004 13.868c0-4.6984-1.076-9.4326-4.1126-13.0072-.2391-.275-.6934-.7652-1.1836-1.1955C.8608-.4782.837-.4782.6695-.4782c-.1435 0-.251 0-.251.1195 0 .0479.0478.0957.0717.1196C.9086.1913 1.7096.9923 2.5106 2.2834 4.4354 5.368 5.308 9.2533 5.308 13.856c0 3.216-.4304 7.3644-2.403 10.9271-.9445 1.6976-1.9367 2.6899-2.4388 3.192-.024.0359-.0479.0717-.0479.1076 0 .1195.1076.1195.251.1195.1675 0 .1914 0 .3707-.1793 4.005-3.6463 5.2603-9.1218 5.2603-14.1549z" id="s"/><path d="M2.9888 28.2022H6.133v-.6575H3.6463V.1793H6.133v-.6575H2.9888v28.6804z" id="q"/><path d="M2.654 27.5447H.1674v.6575h3.1442V-.4782H.1674v.6575H2.654v27.3654z" id="t"/><path d="M4.9733 17.8012c0-.5618 0-1.4465-.7531-2.4149-.4663-.5978-1.1477-1.1477-1.9726-1.5183 2.3312-1.1238 2.7258-2.8453 2.7258-3.5268V3.455c0-.7412 0-2.2714 2.3193-3.4191.0956-.0479.0956-.0718.0956-.251 0-.2512 0-.2631-.263-.2631-.1674 0-.1913 0-.5021.1435C5.4396.251 4.268 1.1955 4.0169 2.654c-.0358.2391-.0358.3468-.0358 1.1477V9.325c0 .3706 0 .9923-.012 1.1238-.1076 1.2553-.8369 2.3432-2.1997 3.0964-.1913.1076-.2033.1196-.2033.3108 0 .2033.012.2152.1793.3109.801.4423 1.9487 1.3031 2.1879 2.7975.0478.275.0478.2989.0478.4304v7.1013c0 1.7335 1.1955 2.8693 2.678 3.5746.263.1315.2869.1315.4662.1315.251 0 .263 0 .263-.263 0-.1913-.012-.2032-.1076-.263-.4902-.2391-2.0324-1.0162-2.2834-2.7377-.024-.1674-.024-.2989-.024-1.0162v-6.1211z" id="m"/><path d="M4.9733 17.61c0-1.4107.7174-2.6302 2.3194-3.4909.0836-.0479.0956-.0598.0956-.2511 0-.2032-.012-.2152-.1435-.2869-2.1519-1.1477-2.2714-2.9051-2.2714-3.2518V3.2279c0-1.7335-1.1956-2.8692-2.678-3.5746-.263-.1315-.287-.1315-.4663-.1315-.251 0-.263.012-.263.263 0 .1793 0 .2032.1076.263.5141.251 2.0444 1.0282 2.2835 2.7378.0239.1673.0239.2988.0239 1.0161v6.121c0 .562 0 1.4467.7532 2.415.4662.5978 1.1476 1.1477 1.9726 1.5183-2.3313 1.1238-2.7258 2.8454-2.7258 3.5268v6.8862c0 .6217 0 1.3151-.6934 2.1878-.538.6695-1.1238.9803-1.6379 1.2314-.0837.0478-.0837.0956-.0837.251 0 .2511.012.263.263.263.1674 0 .1913 0 .5022-.1434 1.1835-.5858 2.3551-1.5303 2.6062-2.9888.0358-.2391.0358-.3467.0358-1.1477V17.61z" id="x"/><path d="M3.8974-2.5425c0-.8528-.0877-1.3708-.3507-1.881C3.196-5.1247 2.5504-5.3 2.1121-5.3c-1.0042 0-1.3709.7492-1.4825.9723C.3427-3.746.3268-2.9569.3268-2.5425c0 .526.0239 1.331.4064 1.9687.3667.5897.9565.7412 1.3789.7412.3826 0 1.068-.1196 1.4665-.9086.2949-.5739.3188-1.2832.3188-1.8013zM2.112-.0558c-.271 0-.821-.1275-.9883-.9644-.0877-.4543-.0877-1.2035-.0877-1.618 0-.5498 0-1.1078.0877-1.5461.1674-.813.789-.8927.9883-.8927.271 0 .8209.1355.9803.8608.0956.4384.0956 1.0361.0956 1.578 0 .4703 0 1.1876-.0956 1.634-.1674.8368-.7173.9484-.9803.9484z" id="g"/><path d="M1.0999-2.6381c0-.6615.0558-1.2433.3427-1.7295.239-.3985.6456-.7253 1.1477-.7253.1594 0 .526.024.7093.3029-.3586.0159-.3905.2869-.3905.3746 0 .239.1833.3746.3746.3746.1435 0 .3746-.0877.3746-.3906 0-.4782-.3587-.8687-1.076-.8687-1.1078 0-2.2316 1.052-2.2316 2.7736C.3507-.3666 1.3549.1674 2.128.1674c.3826 0 .797-.1036 1.1557-.4464.3188-.3108.5898-.6455.5898-1.339 0-1.044-.789-1.7773-1.6738-1.7773-.5738 0-.9165.3667-1.0998.7572zM2.128-.0717c-.4224 0-.6854-.295-.805-.518-.1833-.3587-.1992-.9007-.1992-1.2036 0-.789.4304-1.3788 1.044-1.3788.3986 0 .6377.2072.7891.4862.1674.2949.1674.6535.1674 1.06s0 .7572-.1594 1.044c-.2072.3667-.4862.5102-.8369.5102z" id="w"/><path d="M5.1288-8.524c0-.012.0717-.1913.0717-.2152 0-.1435-.1196-.2272-.2152-.2272-.0598 0-.1674 0-.263.263L.7173 2.5465c0 .012-.0717.1912-.0717.2151 0 .1435.1195.2272.2152.2272.0717 0 .1793-.012.263-.263L5.1288-8.524z" id="k"/><path d="M1.877-.8847c-.1076.4184-.1316.538-.9684.538-.2272 0-.3467 0-.3467.2152C.5619 0 .6336 0 .8727 0h3.7898c2.415 0 4.7701-2.4986 4.7701-5.1646 0-1.7216-1.0281-3.0008-2.7377-3.0008H2.8573c-.2272 0-.3348 0-.3348.2272 0 .1195.1076.1195.287.1195.7292 0 .7292.0957.7292.2272 0 .0239 0 .0956-.0478.275L1.877-.8848zm2.5225-6.4677c.1076-.4424.1554-.4663.6217-.4663h1.315c1.1238 0 2.152.6097 2.152 2.2595 0 .5978-.2391 2.678-1.3988 3.993-.3347.3946-1.2433 1.2195-2.6182 1.2195H3.1083c-.1673 0-.1912 0-.263-.012-.1315-.012-.1434-.0358-.1434-.1315 0-.0836.0239-.1554.0478-.263l1.6498-6.5992z" id="f"/><path d="M7.4002-6.8384c.4065-.6455.7771-.9325 1.3869-.9803.1195-.012.2151-.012.2151-.2271 0-.0479-.0239-.1196-.1315-.1196-.2152 0-.7292.024-.9444.024-.3467 0-.7054-.024-1.0401-.024-.0957 0-.2152 0-.2152.2272 0 .1076.1076.1195.1554.1195.4423.0359.4902.251.4902.3945 0 .1794-.1674.4543-.1794.4663L3.3833-1.0042l-.8369-6.4439c0-.3467.6217-.3706.7532-.3706.1794 0 .287 0 .287-.2271 0-.1196-.1316-.1196-.1674-.1196-.2033 0-.4424.024-.6456.024h-.6695c-.8727 0-1.2314-.024-1.2433-.024-.0718 0-.2152 0-.2152.2152 0 .1315.0837.1315.275.1315.6097 0 .6455.1076.6814.4065l.9564 7.3763c.0359.251.0359.287.2032.287.1435 0 .2033-.036.3228-.2272l4.3159-6.8623z" id="a"/><path d="M3.5985-1.4227c-.0598.2033-.0598.2272-.2271.4543-.263.3348-.789.8488-1.351.8488-.4901 0-.7651-.4423-.7651-1.1477 0-.6575.3706-1.9965.5978-2.4986.4064-.8368.9683-1.2672 1.4346-1.2672.789 0 .9444.9803.9444 1.076 0 .0119-.0358.1673-.0478.1912l-.5858 2.3432zm.7651-3.0605c-.1315-.3108-.4543-.789-1.076-.789-1.3509 0-2.8094 1.7454-2.8094 3.5148 0 1.1836.6934 1.877 1.5064 1.877.6575 0 1.2194-.5141 1.5541-.9086.1196.7053.6815.9086 1.0401.9086s.6456-.2152.8608-.6456c.1913-.4065.3587-1.1358.3587-1.1836 0-.0598-.0479-.1076-.1196-.1076-.1076 0-.1196.0598-.1674.2391-.1793.7054-.4064 1.4585-.8966 1.4585-.3467 0-.3706-.3108-.3706-.5499 0-.275.0358-.4065.1434-.8727.0837-.2989.1435-.562.2391-.9086.4424-1.7933.55-2.2237.55-2.2954 0-.1674-.1315-.2989-.3108-.2989-.3826 0-.4783.4184-.5022.562z" id="l"/><path d="M4.6506-4.8897c-.3706.0718-.562.3348-.562.5978 0 .287.2272.3826.3946.3826.3347 0 .6097-.287.6097-.6456 0-.3826-.3706-.7173-.9684-.7173-.4782 0-1.0281.2152-1.5302.9444-.0837-.6336-.562-.9444-1.0401-.9444-.4663 0-.7054.3586-.8488.6216C.502-4.2202.3228-3.5029.3228-3.443c0 .0478.0478.1076.1315.1076.0956 0 .1076-.012.1793-.287.1794-.7172.4065-1.4106.8847-1.4106.287 0 .3706.2032.3706.55 0 .263-.1195.7292-.2032 1.0998l-.3348 1.2912c-.0478.227-.1793.765-.239.9803-.0838.3108-.2153.8727-.2153.9325 0 .1673.1315.2989.3109.2989.1315 0 .3586-.0837.4304-.3228.0358-.0957.4782-1.901.5499-2.1759.0598-.263.1315-.514.1913-.777.0478-.1674.0956-.3587.1315-.5141.0358-.1076.3586-.6934.6575-.9564.1435-.1316.4543-.4065.9445-.4065.1913 0 .3825.0358.538.1434z" id="c"/><path d="M3.8854 2.9051c0-.0359 0-.0598-.2032-.263-1.1955-1.2075-1.865-3.18-1.865-5.619 0-2.3192.5619-4.3157 1.9487-5.7265.1195-.1076.1195-.1315.1195-.1673 0-.0718-.0598-.0957-.1076-.0957-.1554 0-1.1357.8608-1.7215 2.0324-.6097 1.2075-.8847 2.4867-.8847 3.9572 0 1.064.1674 2.4866.789 3.7658.7054 1.4347 1.6857 2.2117 1.8172 2.2117.0478 0 .1076-.0239.1076-.0956z" id="b"/><path d="M3.3714-2.9768c0-.9086-.1196-2.391-.789-3.7779C1.877-8.1893.8965-8.9664.765-8.9664c-.0478 0-.1076.024-.1076.0957 0 .0358 0 .0597.2033.263 1.1955 1.2074 1.865 3.18 1.865 5.619 0 2.3192-.562 4.3157-1.9487 5.7264-.1196.1076-.1196.1315-.1196.1674 0 .0717.0598.0957.1076.0957.1554 0 1.1358-.8608 1.7216-2.0324.6097-1.2195.8847-2.5106.8847-3.9452z" id="d"/><path d="M3.443-7.6633c0-.275 0-.2869-.239-.2869-.287.3228-.8847.7651-2.116.7651v.3467c.2749 0 .8726 0 1.5302-.3108v6.2287c0 .4303-.0359.5738-1.088.5738h-.3705V0c.3227-.024 1.4824-.024 1.877-.024s1.5421 0 1.865.024v-.3467H4.531c-1.052 0-1.088-.1435-1.088-.5738v-6.7428z" id="h"/><path d="M1.4705-4.1604c0-3.0247 1.4705-3.5029 2.116-3.5029.4304 0 .8608.1315 1.088.4902-.1435 0-.5978 0-.5978.4902 0 .263.1793.4901.4902.4901.2988 0 .502-.1793.502-.526 0-.6217-.4542-1.2314-1.4943-1.2314-1.5064 0-3.0844 1.5422-3.0844 4.1724C.4902-.4902 1.9248.251 2.941.251c1.303 0 2.415-1.1358 2.415-2.69 0-1.59-1.112-2.654-2.3074-2.654-1.064 0-1.4586.9206-1.5781 1.2553v-.3228zM2.941-.0717c-.7532 0-1.1119-.6695-1.2195-.9206-.1076-.3108-.2271-.8966-.2271-1.7335 0-.9444.4304-2.128 1.5064-2.128.6575 0 1.0042.4423 1.1835.8488.1913.4424.1913 1.0401.1913 1.5542 0 .6097 0 1.1477-.2272 1.602-.2988.5738-.7292.777-1.2074.777z" id="j"/><path d="M8.0697-3.8735c.1674 0 .3826 0 .3826-.2152 0-.2271-.2032-.2271-.3826-.2271H1.0281c-.1673 0-.3825 0-.3825.2152 0 .2271.2032.2271.3825.2271h7.0416zm0 2.2237c.1674 0 .3826 0 .3826-.2152 0-.2272-.2032-.2272-.3826-.2272H1.0281c-.1673 0-.3825 0-.3825.2152 0 .2272.2032.2272.3825.2272h7.0416z" id="e"/><path d="M4.5788-2.7736c.263 0 .287 0 .287-.2271 0-1.2075-.6456-2.3313-2.0922-2.3313-1.3629 0-2.415 1.2314-2.415 2.7138C.3587-1.04 1.5782.1196 2.9052.1196c1.4227 0 1.9607-1.2912 1.9607-1.5423 0-.0717-.0598-.1195-.1315-.1195-.0957 0-.1196.0598-.1435.1195C4.28-.4184 3.479-.1435 2.9768-.1435s-1.7095-.3347-1.7095-2.403v-.2271h3.3115zm-3.2996-.2271c.0956-1.877 1.1477-2.0922 1.4824-2.0922 1.2792 0 1.351 1.6857 1.363 2.0922H1.2791z" id="n"/><path d="M2.929 1.9726c-.7651 0-.9086 0-.9086-.538V-.6456c.2152.2989.7054.7652 1.4705.7652 1.3749 0 2.5823-1.1597 2.5823-2.702 0-1.5182-1.1238-2.6898-2.4269-2.6898-1.052 0-1.614.7531-1.6498.801v-.801l-1.6618.1315v.3467c.837 0 .9086.0837.9086.6097v5.619c0 .5379-.1315.5379-.9086.5379v.3467c.3109-.024.9565-.024 1.2912-.024.3467 0 .9923 0 1.3031.024v-.3467zm-.9086-5.7863c0-.2271 0-.2391.1315-.4304.3587-.538.9445-.7651 1.3988-.7651.8966 0 1.614 1.0879 1.614 2.4269 0 1.4226-.813 2.4627-1.7336 2.4627-.3706 0-.7173-.1554-.9564-.3825-.275-.275-.4543-.514-.4543-.8488v-2.4628z" id="p"/><path d="M3.3474-2.8214c.3468-.4543.8489-1.0999 1.076-1.351.4902-.5499 1.052-.6336 1.4346-.6336v-.3467c-.514.024-.538.024-1.0042.024-.4543 0-.4782 0-1.076-.024v.3467c.1555.024.3467.0957.3467.3706 0 .2033-.1076.3348-.1793.4304l-.7651.9684-.9325-1.2314c-.0359-.0478-.1076-.1554-.1076-.2391 0-.0717.0597-.287.4184-.2989v-.3467c-.2989.024-.9086.024-1.2314.024-.3945 0-.4184 0-1.1477-.024v.3467c.6097 0 .8369.024 1.088.3467L2.666-2.63c.024.0239.0717.0956.0717.1315s-.9325 1.2074-1.052 1.3629c-.526.6455-1.052.777-1.5661.789V0c.4542-.024.4782-.024.9922-.024.4543 0 .4782 0 1.076.024v-.3467c-.287-.0359-.3348-.2152-.3348-.3826 0-.1912.0837-.2869.2033-.4423.1793-.251.5738-.7412.8608-1.1118l.9803 1.2792c.2032.263.2032.2869.2032.3586 0 .0957-.0956.287-.4184.2989V0c.3108-.024.8966-.024 1.2314-.024.3945 0 .4184 0 1.1357.024v-.3467c-.6336 0-.8488-.024-1.1357-.4065L3.3475-2.8214z" id="o"/><path d="M7.8785-2.7497c.2032 0 .4184 0 .4184-.239s-.2152-.2392-.4184-.2392H1.4107c-.2032 0-.4184 0-.4184.2391s.2152.2391.4184.2391h6.4678z" id="i"/></defs><g fill="#f9df08"><g transform="matrix(1.13 0 0 1.13 -63.986 -61.022)"><use x="56.4133" xlink:href="#a" y="71.1334"/><use x="65.8135" xlink:href="#b" y="71.1334"/><use x="70.3488" xlink:href="#c" y="71.1334"/><use x="75.9295" xlink:href="#d" y="71.1334"/><use x="83.7857" xlink:href="#e" y="71.1334"/><use x="109.305" xlink:href="#f" y="63.0456"/><use x="118.988" xlink:href="#g" y="64.8389"/><use x="97.3727" xlink:href="#h" y="79.334"/><use x="105.86" xlink:href="#i" y="79.334"/><use x="117.781" xlink:href="#j" y="79.334"/><use x="123.612" xlink:href="#k" y="79.334"/><use x="129.443" xlink:href="#l" y="79.334"/><use x="138.876" xlink:href="#m" y="54.2764"/><use x="149.184" xlink:href="#j" y="63.0456"/><use x="149.038" xlink:href="#l" y="79.334"/><use x="158.371" xlink:href="#n" y="71.1334"/><use x="163.554" xlink:href="#o" y="71.1334"/><use x="169.71" xlink:href="#p" y="71.1334"/><use x="178.248" xlink:href="#q" y="54.2764"/><use x="184.558" xlink:href="#l" y="71.1334"/><use x="192.672" xlink:href="#r" y="54.2764"/><use x="201.472" xlink:href="#h" y="71.1334"/><use x="209.96" xlink:href="#i" y="71.1334"/><use x="225.28" xlink:href="#c" y="63.0456"/><use x="223.076" xlink:href="#c" y="79.334"/><use x="228.332" xlink:href="#g" y="81.1273"/><use x="234.279" xlink:href="#s" y="54.2764"/><use x="243.136" xlink:href="#t" y="54.2764"/><use x="252.126" xlink:href="#i" y="71.1334"/><use x="264.046" xlink:href="#u" y="57.863"/><use x="272.381" xlink:href="#c" y="63.0456"/><use x="277.637" xlink:href="#g" y="64.8389"/><use x="274.585" xlink:href="#c" y="79.334"/><use x="283.585" xlink:href="#v" y="57.863"/><use x="290.724" xlink:href="#w" y="60.5397"/><use x="295.457" xlink:href="#x" y="54.2764"/></g><path d="M46.0452 15.7112h43.2967v.5404H46.0452zM104.427 15.7112h6.9437v.5404h-6.9438zM188.0899 15.7112h11.3086v.5404h-11.3086zM243.8045 15.7112h11.3086v.5404h-11.3086z"/></g></svg>