<svg height="43.2303" viewBox="0 0 160.05 32.4227" width="213.4" xmlns="http://www.w3.org/2000/svg" xmlns:xlink="http://www.w3.org/1999/xlink"><defs><path d="M6.096-4.524c.156 0 .552 0 .552-.384 0-.264-.228-.264-.444-.264H3.552c-1.8 0-3.096 2.004-3.096 3.42 0 1.02.66 1.872 1.74 1.872C3.612.12 5.16-1.404 5.16-3.204c0-.468-.108-.924-.396-1.32h1.332zM2.208-.12c-.612 0-1.056-.468-1.056-1.296 0-.72.432-3.108 2.196-3.108.516 0 1.092.252 1.092 1.176 0 .42-.192 1.428-.612 2.124-.432.708-1.08 1.104-1.62 1.104z" id="j"/><path d="M1.668-2.736c.384.156.792.156 1.02.156.312 0 .936 0 .936-.348 0-.216-.228-.3-.84-.3-.3 0-.66.036-1.08.216-.372-.18-.516-.456-.516-.72 0-.744 1.176-1.176 2.244-1.176.204 0 .636 0 1.14.372.072.048.108.084.192.084.144 0 .3-.156.3-.3 0-.216-.696-.672-1.524-.672-1.344 0-2.616.804-2.616 1.692 0 .444.288.72.492.864C.72-2.472.312-1.824.312-1.236c0 .828.744 1.488 1.896 1.488 1.584 0 2.22-1.056 2.22-1.224 0-.06-.048-.108-.108-.108s-.084.036-.132.108c-.132.228-.444.708-1.872.708-.744 0-1.728-.192-1.728-1.044 0-.408.3-1.02 1.08-1.428zm.372-.144c.324-.108.636-.108.72-.108.336 0 .396.024.588.072-.204.096-.228.096-.66.096-.216 0-.408 0-.648-.06z" id="g"/><path d="M7.428-6.864c.408-.648.78-.936 1.392-.984.12-.012.216-.012.216-.228 0-.048-.024-.12-.132-.12-.216 0-.732.024-.948.024-.348 0-.708-.024-1.044-.024-.096 0-.216 0-.216.228 0 .108.108.12.156.12.444.036.492.252.492.396 0 .18-.168.456-.18.468L3.396-1.008l-.84-6.468c0-.348.624-.372.756-.372.18 0 .288 0 .288-.228 0-.12-.132-.12-.168-.12-.204 0-.444.024-.648.024h-.672c-.876 0-1.236-.024-1.248-.024-.072 0-.216 0-.216.216 0 .132.084.132.276.132.612 0 .648.108.684.408l.96 7.404c.036.252.036.288.204.288.144 0 .204-.036.324-.228l4.332-6.888z" id="a"/><path d="M4.668-4.908c-.372.072-.564.336-.564.6 0 .288.228.384.396.384.336 0 .612-.288.612-.648 0-.384-.372-.72-.972-.72-.48 0-1.032.216-1.536.948-.084-.636-.564-.948-1.044-.948-.468 0-.708.36-.852.624-.204.432-.384 1.152-.384 1.212 0 .048.048.108.132.108.096 0 .108-.012.18-.288.18-.72.408-1.416.888-1.416.288 0 .372.204.372.552 0 .264-.12.732-.204 1.104L1.356-2.1c-.048.228-.18.768-.24.984C1.032-.804.9-.24.9-.18c0 .168.132.3.312.3.132 0 .36-.084.432-.324.036-.096.48-1.908.552-2.184.06-.264.132-.516.192-.78.048-.168.096-.36.132-.516.036-.108.36-.696.66-.96.144-.132.456-.408.948-.408.192 0 .384.036.54.144z" id="c"/><path d="M3.9 2.916c0-.036 0-.06-.204-.264-1.2-1.212-1.872-3.192-1.872-5.64 0-2.328.564-4.332 1.956-5.748.12-.108.12-.132.12-.168C3.9-8.976 3.84-9 3.792-9c-.156 0-1.14.864-1.728 2.04-.612 1.212-.888 2.496-.888 3.972 0 1.068.168 2.496.792 3.78.708 1.44 1.692 2.22 1.824 2.22.048 0 .108-.024.108-.096z" id="b"/><path d="M3.384-2.988c0-.912-.12-2.4-.792-3.792C1.884-8.22.9-9 .768-9 .72-9 .66-8.976.66-8.904c0 .036 0 .06.204.264C2.064-7.428 2.736-5.448 2.736-3c0 2.328-.564 4.332-1.956 5.748-.12.108-.12.132-.12.168 0 .072.06.096.108.096.156 0 1.14-.864 1.728-2.04.612-1.224.888-2.52.888-3.96z" id="d"/><path d="M4.332-7.812c0-.228 0-.288-.168-.288-.096 0-.132 0-.228.144L.324-2.352v.348H3.48v1.092c0 .444-.024.564-.9.564h-.24V0c.276-.024 1.224-.024 1.56-.024s1.296 0 1.572.024v-.348h-.24c-.864 0-.9-.12-.9-.564v-1.092h1.212v-.348H4.332v-5.46zm-.792.936v4.524H.624L3.54-6.876z" id="f"/><path d="M8.1-3.888c.168 0 .384 0 .384-.216 0-.228-.204-.228-.384-.228H1.032c-.168 0-.384 0-.384.216 0 .228.204.228.384.228H8.1zm0 2.232c.168 0 .384 0 .384-.216 0-.228-.204-.228-.384-.228H1.032c-.168 0-.384 0-.384.216 0 .228.204.228.384.228H8.1z" id="e"/><path d="M6.18 20.976c.024.012.132.132.144.132h.264c.036 0 .132-.012.132-.12 0-.048-.024-.072-.048-.108-.432-.432-1.08-1.092-1.824-2.412-1.296-2.304-1.776-5.268-1.776-8.148 0-5.328 1.512-8.46 3.612-10.584.036-.036.036-.072.036-.096 0-.12-.084-.12-.228-.12-.156 0-.18 0-.288.096C5.064.6 3.78 2.268 2.952 4.8c-.516 1.584-.792 3.516-.792 5.508 0 2.844.516 6.06 2.4 8.844.324.468.768.96.768.972.12.144.288.336.384.42l.468.432z" id="i"/><path d="M4.992 10.308c0-3.444-.804-7.104-3.168-9.804-.168-.192-.612-.66-.9-.912C.84-.48.816-.48.66-.48c-.12 0-.228 0-.228.12 0 .048.048.096.072.12.408.42 1.056 1.08 1.8 2.4C3.6 4.464 4.08 7.428 4.08 10.308c0 5.208-1.44 8.388-3.6 10.584-.024.024-.048.06-.048.096 0 .12.108.12.228.12.156 0 .18 0 .288-.096 1.14-.984 2.424-2.652 3.252-5.184.528-1.644.792-3.588.792-5.52z" id="k"/><path d="M3 28.308h3.156v-.66H3.66V.18h2.496v-.66H3v28.788z" id="h"/><path d="M2.664 27.648H.168v.66h3.156V-.48H.168v.66h2.496v27.468z" id="p"/><path d="M2.512-5.096c0-.216-.016-.224-.232-.224-.328.32-.752.512-1.512.512v.264c.216 0 .648 0 1.112-.216v4.104c0 .296-.024.392-.784.392h-.28V0c.328-.024 1.016-.024 1.376-.024s1.056 0 1.384.024v-.264h-.28c-.76 0-.784-.096-.784-.392v-4.44z" id="l"/><path d="M2.256-1.632c.128-.12.464-.384.592-.496.496-.456.968-.896.968-1.624 0-.952-.8-1.568-1.8-1.568-.96 0-1.592.728-1.592 1.44 0 .392.312.448.424.448.168 0 .416-.12.416-.424 0-.416-.4-.416-.496-.416.232-.584.768-.784 1.16-.784.744 0 1.128.632 1.128 1.304 0 .832-.584 1.44-1.528 2.408L.52-.304C.424-.216.424-.2.424 0h3.16l.232-1.432h-.248c-.024.16-.088.56-.184.712-.048.064-.656.064-.784.064H1.176l1.08-.976z" id="m"/><path d="M1.104-2.648c0-.664.056-1.248.344-1.736.24-.4.648-.728 1.152-.728.16 0 .528.024.712.304-.36.016-.392.288-.392.376 0 .24.184.376.376.376.144 0 .376-.088.376-.392 0-.48-.36-.872-1.08-.872-1.112 0-2.24 1.056-2.24 2.784C.352-.368 1.36.168 2.136.168c.384 0 .8-.104 1.16-.448.32-.312.592-.648.592-1.344 0-1.048-.792-1.784-1.68-1.784-.576 0-.92.368-1.104.76zM2.136-.072c-.424 0-.688-.296-.808-.52-.184-.36-.2-.904-.2-1.208 0-.792.432-1.384 1.048-1.384.4 0 .64.208.792.488.168.296.168.656.168 1.064s0 .76-.16 1.048c-.208.368-.488.512-.84.512z" id="o"/><path d="M7.908-2.76c.204 0 .42 0 .42-.24s-.216-.24-.42-.24H1.416c-.204 0-.42 0-.42.24s.216.24.42.24h6.492z" id="n"/></defs><g fill="#f9df08"><g transform="translate(-63.986 -61.02) scale(1.12578)"><use x="56.6248" xlink:href="#a" y="71.4001"/><use x="66.0858" xlink:href="#b" y="71.4001"/><use x="70.6552" xlink:href="#c" y="71.4001"/><use x="76.2767" xlink:href="#d" y="71.4001"/><use x="84.1794" xlink:href="#e" y="71.4001"/><use x="96.6515" xlink:href="#f" y="71.4001"/><use x="102.526" xlink:href="#g" y="71.4001"/><use x="110.025" xlink:href="#h" y="54.48"/><use x="116.358" xlink:href="#i" y="58.08"/><use x="124.725" xlink:href="#j" y="63.282"/><use x="125.469" xlink:href="#c" y="79.6315"/><use x="133.034" xlink:href="#k" y="58.08"/><use x="140.201" xlink:href="#l" y="60.7667"/><use x="144.451" xlink:href="#m" y="60.7667"/><use x="151.867" xlink:href="#n" y="71.4001"/><use x="163.867" xlink:href="#i" y="58.08"/><use x="172.234" xlink:href="#j" y="63.282"/><use x="172.978" xlink:href="#c" y="79.6315"/><use x="180.543" xlink:href="#k" y="58.08"/><use x="187.71" xlink:href="#o" y="60.7667"/><use x="192.46" xlink:href="#p" y="54.48"/></g><path d="M76.427 15.7133h8.003v.5404h-8.003zM129.9116 15.7133h8.0032v.5404h-8.0032z"/></g></svg>