<svg height="43.2303" viewBox="0 0 238.92 32.4227" width="318.56" xmlns="http://www.w3.org/2000/svg" xmlns:xlink="http://www.w3.org/1999/xlink"><defs><path d="M1.884-.888c-.108.42-.132.54-.972.54-.228 0-.348 0-.348.216C.564 0 .636 0 .876 0H4.68c2.424 0 4.788-2.508 4.788-5.184 0-1.728-1.032-3.012-2.748-3.012H2.868c-.228 0-.336 0-.336.228 0 .12.108.12.288.12.732 0 .732.096.732.228 0 .024 0 .096-.048.276L1.884-.888zM4.416-7.38c.108-.444.156-.468.624-.468h1.32c1.128 0 2.16.612 2.16 2.268 0 .6-.24 2.688-1.404 4.008-.336.396-1.248 1.224-2.628 1.224H3.12c-.168 0-.192 0-.264-.012-.132-.012-.144-.036-.144-.132 0-.084.024-.156.048-.264L4.416-7.38z" id="g"/><path d="M7.428-6.864c.408-.648.78-.936 1.392-.984.12-.012.216-.012.216-.228 0-.048-.024-.12-.132-.12-.216 0-.732.024-.948.024-.348 0-.708-.024-1.044-.024-.096 0-.216 0-.216.228 0 .108.108.12.156.12.444.036.492.252.492.396 0 .18-.168.456-.18.468L3.396-1.008l-.84-6.468c0-.348.624-.372.756-.372.18 0 .288 0 .288-.228 0-.12-.132-.12-.168-.12-.204 0-.444.024-.648.024h-.672c-.876 0-1.236-.024-1.248-.024-.072 0-.216 0-.216.216 0 .132.084.132.276.132.612 0 .648.108.684.408l.96 7.404c.036.252.036.288.204.288.144 0 .204-.036.324-.228l4.332-6.888z" id="a"/><path d="M3.612-1.428c-.06.204-.06.228-.228.456-.264.336-.792.852-1.356.852-.492 0-.768-.444-.768-1.152 0-.66.372-2.004.6-2.508.408-.84.972-1.272 1.44-1.272.792 0 .948.984.948 1.08 0 .012-.036.168-.048.192l-.588 2.352zM4.38-4.5c-.132-.312-.456-.792-1.08-.792C1.944-5.292.48-3.54.48-1.764.48-.576 1.176.12 1.992.12c.66 0 1.224-.516 1.56-.912.12.708.684.912 1.044.912s.648-.216.864-.648c.192-.408.36-1.14.36-1.188 0-.06-.048-.108-.12-.108-.108 0-.12.06-.168.24-.18.708-.408 1.464-.9 1.464-.348 0-.372-.312-.372-.552 0-.276.036-.408.144-.876.084-.3.144-.564.24-.912.444-1.8.552-2.232.552-2.304 0-.168-.132-.3-.312-.3-.384 0-.48.42-.504.564z" id="o"/><path d="M4.668-4.908c-.372.072-.564.336-.564.6 0 .288.228.384.396.384.336 0 .612-.288.612-.648 0-.384-.372-.72-.972-.72-.48 0-1.032.216-1.536.948-.084-.636-.564-.948-1.044-.948-.468 0-.708.36-.852.624-.204.432-.384 1.152-.384 1.212 0 .048.048.108.132.108.096 0 .108-.012.18-.288.18-.72.408-1.416.888-1.416.288 0 .372.204.372.552 0 .264-.12.732-.204 1.104L1.356-2.1c-.048.228-.18.768-.24.984C1.032-.804.9-.24.9-.18c0 .168.132.3.312.3.132 0 .36-.084.432-.324.036-.096.48-1.908.552-2.184.06-.264.132-.516.192-.78.048-.168.096-.36.132-.516.036-.108.36-.696.66-.96.144-.132.456-.408.948-.408.192 0 .384.036.54.144z" id="c"/><path d="M3.9 2.916c0-.036 0-.06-.204-.264-1.2-1.212-1.872-3.192-1.872-5.64 0-2.328.564-4.332 1.956-5.748.12-.108.12-.132.12-.168C3.9-8.976 3.84-9 3.792-9c-.156 0-1.14.864-1.728 2.04-.612 1.212-.888 2.496-.888 3.972 0 1.068.168 2.496.792 3.78.708 1.44 1.692 2.22 1.824 2.22.048 0 .108-.024.108-.096z" id="b"/><path d="M3.384-2.988c0-.912-.12-2.4-.792-3.792C1.884-8.22.9-9 .768-9 .72-9 .66-8.976.66-8.904c0 .036 0 .06.204.264C2.064-7.428 2.736-5.448 2.736-3c0 2.328-.564 4.332-1.956 5.748-.12.108-.12.132-.12.168 0 .072.06.096.108.096.156 0 1.14-.864 1.728-2.04.612-1.224.888-2.52.888-3.96z" id="d"/><path d="M4.788-2.772H8.1c.168 0 .384 0 .384-.216 0-.228-.204-.228-.384-.228H4.788v-3.312c0-.168 0-.384-.216-.384-.228 0-.228.204-.228.384v3.312H1.032c-.168 0-.384 0-.384.216 0 .228.204.228.384.228h3.312V.54c0 .168 0 .384.216.384.228 0 .228-.204.228-.384v-3.312z" id="i"/><path d="M3.456-7.692c0-.276 0-.288-.24-.288-.288.324-.888.768-2.124.768v.348c.276 0 .876 0 1.536-.312v6.252c0 .432-.036.576-1.092.576h-.372V0c.324-.024 1.488-.024 1.884-.024s1.548 0 1.872.024v-.348h-.372c-1.056 0-1.092-.144-1.092-.576v-6.768z" id="k"/><path d="M8.1-3.888c.168 0 .384 0 .384-.216 0-.228-.204-.228-.384-.228H1.032c-.168 0-.384 0-.384.216 0 .228.204.228.384.228H8.1zm0 2.232c.168 0 .384 0 .384-.216 0-.228-.204-.228-.384-.228H1.032c-.168 0-.384 0-.384.216 0 .228.204.228.384.228H8.1z" id="e"/><path d="M3 3v-.444H1.836V-8.556H3V-9H1.392V3H3z" id="j"/><path d="M1.86-9H.252v.444h1.164V2.556H.252V3H1.86V-9z" id="p"/><path d="M4.596-2.784c.264 0 .288 0 .288-.228 0-1.212-.648-2.34-2.1-2.34C1.416-5.352.36-4.116.36-2.628.36-1.044 1.584.12 2.916.12c1.428 0 1.968-1.296 1.968-1.548 0-.072-.06-.12-.132-.12-.096 0-.12.06-.144.12C4.296-.42 3.492-.144 2.988-.144S1.272-.48 1.272-2.556v-.228h3.324zm-3.312-.228c.096-1.884 1.152-2.1 1.488-2.1 1.284 0 1.356 1.692 1.368 2.1H1.284z" id="l"/><path d="M2.94 1.98c-.768 0-.912 0-.912-.54V-.648c.216.3.708.768 1.476.768 1.38 0 2.592-1.164 2.592-2.712 0-1.524-1.128-2.7-2.436-2.7-1.056 0-1.62.756-1.656.804v-.804L.336-5.16v.348c.84 0 .912.084.912.612v5.64c0 .54-.132.54-.912.54v.348c.312-.024.96-.024 1.296-.024.348 0 .996 0 1.308.024V1.98zm-.912-5.808c0-.228 0-.24.132-.432.36-.54.948-.768 1.404-.768.9 0 1.62 1.092 1.62 2.436 0 1.428-.816 2.472-1.74 2.472-.372 0-.72-.156-.96-.384-.276-.276-.456-.516-.456-.852v-2.472z" id="n"/><path d="M3.36-2.832c.348-.456.852-1.104 1.08-1.356.492-.552 1.056-.636 1.44-.636v-.348c-.516.024-.54.024-1.008.024-.456 0-.48 0-1.08-.024v.348c.156.024.348.096.348.372 0 .204-.108.336-.18.432l-.768.972-.936-1.236c-.036-.048-.108-.156-.108-.24 0-.072.06-.288.42-.3v-.348c-.3.024-.912.024-1.236.024-.396 0-.42 0-1.152-.024v.348c.612 0 .84.024 1.092.348L2.676-2.64c.024.024.072.096.072.132S1.812-1.296 1.692-1.14C1.164-.492.636-.36.12-.348V0c.456-.024.48-.024.996-.024.456 0 .48 0 1.08.024v-.348c-.288-.036-.336-.216-.336-.384 0-.192.084-.288.204-.444.18-.252.576-.744.864-1.116l.984 1.284c.204.264.204.288.204.36 0 .096-.096.288-.42.3V0c.312-.024.9-.024 1.236-.024.396 0 .42 0 1.14.024v-.348c-.636 0-.852-.024-1.14-.408L3.36-2.832z" id="m"/><path d="M7.908-2.76c.204 0 .42 0 .42-.24s-.216-.24-.42-.24H1.416c-.204 0-.42 0-.42.24s.216.24.42.24h6.492z" id="f"/><path d="M3.912-2.552c0-.856-.088-1.376-.352-1.888-.352-.704-1-.88-1.44-.88-1.008 0-1.376.752-1.488.976C.344-3.76.328-2.968.328-2.552c0 .528.024 1.336.408 1.976.368.592.96.744 1.384.744.384 0 1.072-.12 1.472-.912.296-.576.32-1.288.32-1.808zM2.12-.056c-.272 0-.824-.128-.992-.968-.088-.456-.088-1.208-.088-1.624 0-.552 0-1.112.088-1.552.168-.816.792-.896.992-.896.272 0 .824.136.984.864.096.44.096 1.04.096 1.584 0 .472 0 1.192-.096 1.64-.168.84-.72.952-.984.952z" id="h"/><path d="M2.256-1.632c.128-.12.464-.384.592-.496.496-.456.968-.896.968-1.624 0-.952-.8-1.568-1.8-1.568-.96 0-1.592.728-1.592 1.44 0 .392.312.448.424.448.168 0 .416-.12.416-.424 0-.416-.4-.416-.496-.416.232-.584.768-.784 1.16-.784.744 0 1.128.632 1.128 1.304 0 .832-.584 1.44-1.528 2.408L.52-.304C.424-.216.424-.2.424 0h3.16l.232-1.432h-.248c-.024.16-.088.56-.184.712-.048.064-.656.064-.784.064H1.176l1.08-.976z" id="q"/></defs><g fill="#f9df08" transform="translate(-63.986 -62.1626) scale(1.12578)"><use x="56.6248" xlink:href="#a" y="66"/><use x="66.0858" xlink:href="#b" y="66"/><use x="70.6552" xlink:href="#c" y="66"/><use x="76.2767" xlink:href="#d" y="66"/><use x="84.1794" xlink:href="#e" y="66"/><use x="96.6515" xlink:href="#f" y="66"/><use x="105.985" xlink:href="#g" y="66"/><use x="115.741" xlink:href="#h" y="67.8"/><use x="123.157" xlink:href="#i" y="66"/><use x="134.963" xlink:href="#g" y="66"/><use x="144.718" xlink:href="#h" y="67.8"/><use x="151.468" xlink:href="#j" y="66"/><use x="154.732" xlink:href="#k" y="66"/><use x="163.274" xlink:href="#f" y="66"/><use x="175.274" xlink:href="#l" y="66"/><use x="180.496" xlink:href="#m" y="66"/><use x="186.697" xlink:href="#n" y="66"/><use x="195.225" xlink:href="#b" y="66"/><use x="199.794" xlink:href="#f" y="66"/><use x="209.128" xlink:href="#o" y="66"/><use x="217.296" xlink:href="#b" y="66"/><use x="221.865" xlink:href="#c" y="66"/><use x="230.153" xlink:href="#f" y="66"/><use x="242.153" xlink:href="#c" y="66"/><use x="247.448" xlink:href="#h" y="67.8"/><use x="252.198" xlink:href="#d" y="66"/><use x="256.768" xlink:href="#d" y="66"/><use x="261.337" xlink:href="#p" y="66"/><use x="264.601" xlink:href="#q" y="60.1667"/></g></svg>