<svg height="43.2303" viewBox="-0.2391 -0.2281 268.872 32.4227" width="358.496" xmlns="http://www.w3.org/2000/svg" xmlns:xlink="http://www.w3.org/1999/xlink"><defs><path d="M4.9375 13.7365c0-.0478-.024-.0717-.0478-.1076-.55-.5858-1.363-1.5542-1.865-3.5029-.275-1.0879-.3826-2.3193-.3826-3.4311 0-3.1442.7532-5.344 2.1878-6.8981.1076-.1076.1076-.1315.1076-.1555 0-.1195-.0957-.1195-.1435-.1195-.1793 0-.8249.7173-.9803.8966C2.5943 1.865 1.8172 4.017 1.8172 6.683c0 1.6977.2989 4.1007 1.865 6.1211.1195.1434.8966 1.052 1.1118 1.052.0478 0 .1435 0 .1435-.1195z" id="o"/><path d="M3.6463 6.6949c0-1.6976-.2989-4.1006-1.865-6.121C1.6618.4303.8847-.4783.6695-.4783c-.0598 0-.1435.0239-.1435.1195 0 .0479.024.0837.0718.1196.5738.6217 1.3509 1.59 1.841 3.491.275 1.0878.3826 2.3192.3826 3.431 0 1.2075-.1076 2.427-.4184 3.5985-.4543 1.6738-1.1597 2.6302-1.7694 3.2997-.1076.1076-.1076.1315-.1076.1554 0 .0956.0837.1195.1435.1195.1793 0 .8369-.7292.9803-.8966 1.2194-1.4466 1.9965-3.5985 1.9965-6.2645z" id="r"/><path d="M2.7019 21.0291h2.7138v-.5619h-2.152V.0837h2.152v-.562H2.7019v21.5074z" id="j"/><path d="M2.3671 20.4672H.2151v.5619h2.714V-.4782H.215v.5619h2.152v20.3835z" id="s"/><path d="M3.8974-2.5425c0-.8528-.0877-1.3708-.3507-1.881C3.196-5.1247 2.5504-5.3 2.1121-5.3c-1.0042 0-1.3709.7492-1.4825.9723C.3427-3.746.3268-2.9569.3268-2.5425c0 .526.0239 1.331.4064 1.9687.3667.5897.9565.7412 1.3789.7412.3826 0 1.068-.1196 1.4665-.9086.2949-.5739.3188-1.2832.3188-1.8013zM2.112-.0558c-.271 0-.821-.1275-.9883-.9644-.0877-.4543-.0877-1.2035-.0877-1.618 0-.5498 0-1.1078.0877-1.5461.1674-.813.789-.8927.9883-.8927.271 0 .8209.1355.9803.8608.0956.4384.0956 1.0361.0956 1.578 0 .4703 0 1.1876-.0956 1.634-.1674.8368-.7173.9484-.9803.9484z" id="h"/><path d="M2.2476-1.6259c.1275-.1196.4622-.3826.5898-.4942.4941-.4543.9643-.8926.9643-1.6179 0-.9484-.797-1.5621-1.7932-1.5621-.9565 0-1.586.7253-1.586 1.4346 0 .3905.3107.4463.4223.4463.1674 0 .4145-.1195.4145-.4224 0-.4144-.3985-.4144-.4942-.4144.2312-.5819.7652-.7811 1.1557-.7811.7412 0 1.1238.6296 1.1238 1.2991 0 .829-.5818 1.4346-1.5223 2.399L.518-.3029C.4224-.2152.4224-.1993.4224 0h3.1482l.2311-1.4266h-.247c-.024.1594-.0877.5579-.1833.7093-.0479.0638-.6536.0638-.7811.0638H1.1716l1.076-.9724z" id="q"/><path d="M1.877-.8847c-.1076.4184-.1316.538-.9684.538-.2272 0-.3467 0-.3467.2152C.5619 0 .6336 0 .8727 0h3.7898c2.415 0 4.7701-2.4986 4.7701-5.1646 0-1.7216-1.0281-3.0008-2.7377-3.0008H2.8573c-.2272 0-.3348 0-.3348.2272 0 .1195.1076.1195.287.1195.7292 0 .7292.0957.7292.2272 0 .0239 0 .0956-.0478.275L1.877-.8848zm2.5225-6.4677c.1076-.4424.1554-.4663.6217-.4663h1.315c1.1238 0 2.152.6097 2.152 2.2595 0 .5978-.2391 2.678-1.3988 3.993-.3347.3946-1.2433 1.2195-2.6182 1.2195H3.1083c-.1673 0-.1912 0-.263-.012-.1315-.012-.1434-.0358-.1434-.1315 0-.0836.0239-.1554.0478-.263l1.6498-6.5992z" id="g"/><path d="M7.4002-6.8384c.4065-.6455.7771-.9325 1.3869-.9803.1195-.012.2151-.012.2151-.2271 0-.0479-.0239-.1196-.1315-.1196-.2152 0-.7292.024-.9444.024-.3467 0-.7054-.024-1.0401-.024-.0957 0-.2152 0-.2152.2272 0 .1076.1076.1195.1554.1195.4423.0359.4902.251.4902.3945 0 .1794-.1674.4543-.1794.4663L3.3833-1.0042l-.8369-6.4439c0-.3467.6217-.3706.7532-.3706.1794 0 .287 0 .287-.2271 0-.1196-.1316-.1196-.1674-.1196-.2033 0-.4424.024-.6456.024h-.6695c-.8727 0-1.2314-.024-1.2433-.024-.0718 0-.2152 0-.2152.2152 0 .1315.0837.1315.275.1315.6097 0 .6455.1076.6814.4065l.9564 7.3763c.0359.251.0359.287.2032.287.1435 0 .2033-.036.3228-.2272l4.3159-6.8623z" id="a"/><path d="M2.7616-7.998c.012-.0478.036-.1196.036-.1793 0-.1196-.1196-.1196-.1436-.1196-.012 0-.4423.0359-.6575.0598-.2032.012-.3825.0358-.5978.0478-.2869.024-.3706.0359-.3706.251 0 .1196.1196.1196.2391.1196.6098 0 .6098.1076.6098.2272 0 .0836-.0957.4303-.1435.6456l-.287 1.1476C1.327-5.32.6456-2.6063.5979-2.391c-.0598.2988-.0598.502-.0598.6575 0 1.2194.6814 1.853 1.4585 1.853 1.3868 0 2.8214-1.7813 2.8214-3.5148 0-1.0998-.6216-1.877-1.5183-1.877-.6216 0-1.1835.5141-1.4107.7533l.8727-3.479zM2.0085-.1196c-.3826 0-.801-.2869-.801-1.2194 0-.3945.0358-.6217.251-1.4585.0359-.1554.2272-.9206.275-1.076.024-.0956.7293-1.1596 1.5422-1.1596.526 0 .7651.526.7651 1.1477 0 .5738-.3347 1.9248-.6336 2.5464-.2989.6456-.8488 1.2194-1.3987 1.2194z" id="p"/><path d="M4.6506-4.8897c-.3706.0718-.562.3348-.562.5978 0 .287.2272.3826.3946.3826.3347 0 .6097-.287.6097-.6456 0-.3826-.3706-.7173-.9684-.7173-.4782 0-1.0281.2152-1.5302.9444-.0837-.6336-.562-.9444-1.0401-.9444-.4663 0-.7054.3586-.8488.6216C.502-4.2202.3228-3.5029.3228-3.443c0 .0478.0478.1076.1315.1076.0956 0 .1076-.012.1793-.287.1794-.7172.4065-1.4106.8847-1.4106.287 0 .3706.2032.3706.55 0 .263-.1195.7292-.2032 1.0998l-.3348 1.2912c-.0478.227-.1793.765-.239.9803-.0838.3108-.2153.8727-.2153.9325 0 .1673.1315.2989.3109.2989.1315 0 .3586-.0837.4304-.3228.0358-.0957.4782-1.901.5499-2.1759.0598-.263.1315-.514.1913-.777.0478-.1674.0956-.3587.1315-.5141.0358-.1076.3586-.6934.6575-.9564.1435-.1316.4543-.4065.9445-.4065.1913 0 .3825.0358.538.1434z" id="c"/><path d="M3.8854 2.9051c0-.0359 0-.0598-.2032-.263-1.1955-1.2075-1.865-3.18-1.865-5.619 0-2.3192.5619-4.3157 1.9487-5.7265.1195-.1076.1195-.1315.1195-.1673 0-.0718-.0598-.0957-.1076-.0957-.1554 0-1.1357.8608-1.7215 2.0324-.6097 1.2075-.8847 2.4867-.8847 3.9572 0 1.064.1674 2.4866.789 3.7658.7054 1.4347 1.6857 2.2117 1.8172 2.2117.0478 0 .1076-.0239.1076-.0956z" id="b"/><path d="M3.3714-2.9768c0-.9086-.1196-2.391-.789-3.7779C1.877-8.1893.8965-8.9664.765-8.9664c-.0478 0-.1076.024-.1076.0957 0 .0358 0 .0597.2033.263 1.1955 1.2074 1.865 3.18 1.865 5.619 0 2.3192-.562 4.3157-1.9487 5.7264-.1196.1076-.1196.1315-.1196.1674 0 .0717.0598.0957.1076.0957.1554 0 1.1358-.8608 1.7216-2.0324.6097-1.2195.8847-2.5106.8847-3.9452z" id="d"/><path d="M4.7701-2.7616h3.2996c.1674 0 .3826 0 .3826-.2152 0-.2272-.2032-.2272-.3826-.2272H4.7701v-3.2996c0-.1674 0-.3826-.2152-.3826-.2271 0-.2271.2033-.2271.3826v3.2996H1.028c-.1673 0-.3825 0-.3825.2152 0 .2272.2032.2272.3825.2272h3.2997V.538c0 .1674 0 .3825.2152.3825C4.77.9205 4.77.7173 4.77.538v-3.2996z" id="i"/><path d="M3.443-7.6633c0-.275 0-.2869-.239-.2869-.287.3228-.8847.7651-2.116.7651v.3467c.2749 0 .8726 0 1.5302-.3108v6.2287c0 .4303-.0359.5738-1.088.5738h-.3705V0c.3227-.024 1.4824-.024 1.877-.024s1.5421 0 1.865.024v-.3467H4.531c-1.052 0-1.088-.1435-1.088-.5738v-6.7428z" id="k"/><path d="M8.0697-3.8735c.1674 0 .3826 0 .3826-.2152 0-.2271-.2032-.2271-.3826-.2271H1.0281c-.1673 0-.3825 0-.3825.2152 0 .2271.2032.2271.3825.2271h7.0416zm0 2.2237c.1674 0 .3826 0 .3826-.2152 0-.2272-.2032-.2272-.3826-.2272H1.0281c-.1673 0-.3825 0-.3825.2152 0 .2272.2032.2272.3825.2272h7.0416z" id="e"/><path d="M4.5788-2.7736c.263 0 .287 0 .287-.2271 0-1.2075-.6456-2.3313-2.0922-2.3313-1.3629 0-2.415 1.2314-2.415 2.7138C.3587-1.04 1.5782.1196 2.9052.1196c1.4227 0 1.9607-1.2912 1.9607-1.5423 0-.0717-.0598-.1195-.1315-.1195-.0957 0-.1196.0598-.1435.1195C4.28-.4184 3.479-.1435 2.9768-.1435s-1.7095-.3347-1.7095-2.403v-.2271h3.3115zm-3.2996-.2271c.0956-1.877 1.1477-2.0922 1.4824-2.0922 1.2792 0 1.351 1.6857 1.363 2.0922H1.2791z" id="l"/><path d="M2.929 1.9726c-.7651 0-.9086 0-.9086-.538V-.6456c.2152.2989.7054.7652 1.4705.7652 1.3749 0 2.5823-1.1597 2.5823-2.702 0-1.5182-1.1238-2.6898-2.4269-2.6898-1.052 0-1.614.7531-1.6498.801v-.801l-1.6618.1315v.3467c.837 0 .9086.0837.9086.6097v5.619c0 .5379-.1315.5379-.9086.5379v.3467c.3109-.024.9565-.024 1.2912-.024.3467 0 .9923 0 1.3031.024v-.3467zm-.9086-5.7863c0-.2271 0-.2391.1315-.4304.3587-.538.9445-.7651 1.3988-.7651.8966 0 1.614 1.0879 1.614 2.4269 0 1.4226-.813 2.4627-1.7336 2.4627-.3706 0-.7173-.1554-.9564-.3825-.275-.275-.4543-.514-.4543-.8488v-2.4628z" id="n"/><path d="M3.3474-2.8214c.3468-.4543.8489-1.0999 1.076-1.351.4902-.5499 1.052-.6336 1.4346-.6336v-.3467c-.514.024-.538.024-1.0042.024-.4543 0-.4782 0-1.076-.024v.3467c.1555.024.3467.0957.3467.3706 0 .2033-.1076.3348-.1793.4304l-.7651.9684-.9325-1.2314c-.0359-.0478-.1076-.1554-.1076-.2391 0-.0717.0597-.287.4184-.2989v-.3467c-.2989.024-.9086.024-1.2314.024-.3945 0-.4184 0-1.1477-.024v.3467c.6097 0 .8369.024 1.088.3467L2.666-2.63c.024.0239.0717.0956.0717.1315s-.9325 1.2074-1.052 1.3629c-.526.6455-1.052.777-1.5661.789V0c.4542-.024.4782-.024.9922-.024.4543 0 .4782 0 1.076.024v-.3467c-.287-.0359-.3348-.2152-.3348-.3826 0-.1912.0837-.2869.2033-.4423.1793-.251.5738-.7412.8608-1.1118l.9803 1.2792c.2032.263.2032.2869.2032.3586 0 .0957-.0956.287-.4184.2989V0c.3108-.024.8966-.024 1.2314-.024.3945 0 .4184 0 1.1357.024v-.3467c-.6336 0-.8488-.024-1.1357-.4065L3.3475-2.8214z" id="m"/><path d="M7.8785-2.7497c.2032 0 .4184 0 .4184-.239s-.2152-.2392-.4184-.2392H1.4107c-.2032 0-.4184 0-.4184.2391s.2152.2391.4184.2391h6.4678z" id="f"/></defs><g fill="#f9df08"><g transform="matrix(1.13 0 0 1.13 -63.986 -61.0418)"><use x="56.4133" xlink:href="#a" y="69.5283"/><use x="65.8135" xlink:href="#b" y="69.5283"/><use x="70.3488" xlink:href="#c" y="69.5283"/><use x="75.9295" xlink:href="#d" y="69.5283"/><use x="83.7857" xlink:href="#e" y="69.5283"/><use x="96.1771" xlink:href="#f" y="69.5283"/><use x="105.441" xlink:href="#g" y="69.5283"/><use x="115.124" xlink:href="#h" y="71.3215"/><use x="122.513" xlink:href="#i" y="69.5283"/><use x="134.24" xlink:href="#g" y="69.5283"/><use x="143.923" xlink:href="#h" y="71.3215"/><use x="150.648" xlink:href="#j" y="56.2579"/><use x="156.294" xlink:href="#k" y="69.5283"/><use x="164.781" xlink:href="#f" y="69.5283"/><use x="177.897" xlink:href="#c" y="61.4405"/><use x="183.153" xlink:href="#h" y="63.2338"/><use x="180.101" xlink:href="#c" y="77.7289"/><use x="191.093" xlink:href="#l" y="69.5283"/><use x="196.276" xlink:href="#m" y="69.5283"/><use x="202.431" xlink:href="#n" y="69.5283"/><use x="210.969" xlink:href="#o" y="59.8445"/><use x="216.449" xlink:href="#f" y="69.5283"/><use x="225.713" xlink:href="#p" y="69.5283"/><use x="232.664" xlink:href="#o" y="59.8445"/><use x="238.143" xlink:href="#c" y="69.5283"/><use x="243.724" xlink:href="#q" y="64.5921"/><use x="251.113" xlink:href="#f" y="69.5283"/><use x="263.033" xlink:href="#c" y="69.5283"/><use x="268.614" xlink:href="#q" y="64.5921"/><use x="268.289" xlink:href="#h" y="72.4838"/><use x="273.346" xlink:href="#r" y="59.8445"/><use x="278.9" xlink:href="#r" y="59.8445"/><use x="284.433" xlink:href="#s" y="56.2579"/><use x="290.135" xlink:href="#q" y="58.9346"/></g><path d="M137.0376 13.8777h11.3086v.5403h-11.3086z"/></g></svg>